<svg id="svg" version="1.1" xmlns="http://www.w3.org/2000/svg" xmlns:xlink="http://www.w3.org/1999/xlink" width="400" height="400" viewBox="0, 0, 400,400"><g id="svgg"><path id="path0" d="M143.435 36.827 C 31.765 51.156,-32.921 171.166,16.472 272.379 C 44.792 330.412,100.433 364.063,168.069 364.063 L 185.008 364.063 189.038 351.802 C 214.435 274.542,219.330 184.162,202.634 100.781 C 199.008 82.674,193.985 63.248,189.038 48.198 L 185.008 35.938 166.918 36.036 C 156.969 36.091,146.401 36.447,143.435 36.827 M212.109 46.289 C 242.644 141.190,242.644 258.810,212.109 353.711 L 208.778 364.063 230.245 364.063 C 258.312 364.063,256.868 364.887,262.415 345.703 C 289.565 251.816,289.566 148.099,262.418 54.318 C 256.840 35.051,258.391 35.938,230.273 35.938 L 208.778 35.938 212.109 46.289 M318.359 70.316 C 306.193 70.998,300.723 78.364,304.970 88.343 C 307.913 95.261,308.357 95.324,353.843 95.369 C 393.512 95.408,394.165 95.368,397.852 92.679 C 399.966 91.137,400.000 90.978,400.000 82.684 C 400.000 73.220,399.837 72.937,393.359 71.146 C 390.062 70.234,331.402 69.585,318.359 70.316 M318.359 140.629 C 306.193 141.311,300.723 148.676,304.970 158.656 C 307.899 165.540,308.288 165.596,353.784 165.674 C 393.424 165.741,394.141 165.698,397.852 162.992 C 399.966 161.450,400.000 161.290,400.000 152.996 C 400.000 143.532,399.834 143.243,393.359 141.463 C 390.058 140.556,331.318 139.902,318.359 140.629 M319.531 210.938 C 306.156 211.574,300.531 218.539,304.970 228.968 C 307.913 235.886,308.356 235.949,353.855 235.994 C 393.186 236.033,394.618 235.937,398.270 233.019 C 399.963 231.666,400.045 231.146,399.833 223.022 L 399.609 214.453 396.484 212.891 C 393.201 211.249,340.878 209.921,319.531 210.938 M319.531 281.250 C 306.156 281.887,300.531 288.851,304.970 299.281 C 307.913 306.198,308.356 306.262,353.855 306.307 C 393.186 306.345,394.618 306.249,398.270 303.331 C 399.963 301.978,400.045 301.458,399.833 293.335 L 399.609 284.766 396.484 283.203 C 393.201 281.561,340.878 280.233,319.531 281.250 " stroke="none" fill="#000000" fill-rule="evenodd"></path></g></svg>