<svg id="svg" xmlns="http://www.w3.org/2000/svg" xmlns:xlink="http://www.w3.org/1999/xlink" width="400" height="400" viewBox="0, 0, 400,400"><g id="svgg"><path id="path0" d="M38.095 14.017 C 26.775 17.636,17.071 27.593,13.739 39.009 C 11.642 46.193,11.873 354.876,13.980 361.648 C 19.802 380.355,32.269 387.500,59.086 387.500 L 74.919 387.500 75.172 328.320 C 75.419 270.395,75.459 269.037,77.083 264.259 C 81.184 252.188,90.624 243.010,102.734 239.319 C 110.072 237.083,291.047 237.108,297.656 239.346 C 309.831 243.469,318.888 252.402,322.917 264.259 C 324.541 269.037,324.581 270.395,324.828 328.320 L 325.081 387.500 340.987 387.500 C 367.924 387.500,380.708 380.015,386.261 360.991 C 388.052 354.858,388.165 97.267,386.379 93.907 C 385.025 91.358,308.141 14.589,305.715 13.363 C 304.653 12.826,298.546 12.500,289.541 12.500 L 275.072 12.500 274.805 64.648 C 274.607 103.235,274.287 117.544,273.576 119.670 C 271.146 126.930,264.002 133.923,256.768 136.121 C 252.067 137.550,147.936 137.551,143.236 136.122 C 135.869 133.883,128.898 127.062,126.424 119.670 C 125.713 117.544,125.393 103.235,125.195 64.648 L 124.928 12.500 83.753 12.542 C 46.038 12.580,42.201 12.704,38.095 14.017 M150.000 62.500 L 150.000 112.500 200.000 112.500 L 250.000 112.500 250.000 62.500 L 250.000 12.500 200.000 12.500 L 150.000 12.500 150.000 62.500 M105.657 264.058 C 99.653 267.719,100.006 263.657,100.003 329.102 L 100.000 387.500 200.000 387.500 L 300.000 387.500 299.997 329.102 C 299.994 263.657,300.347 267.719,294.343 264.058 C 290.342 261.619,109.658 261.619,105.657 264.058 " stroke="none" fill="#000000" fill-rule="evenodd"></path></g></svg>