<svg id="svg" version="1.1" xmlns="http://www.w3.org/2000/svg" xmlns:xlink="http://www.w3.org/1999/xlink" width="400" height="400" viewBox="0, 0, 400,400"><g id="svgg"><path id="path0" d="M111.328 1.463 C 94.450 6.329,80.561 20.483,76.239 37.222 C 74.374 44.446,74.374 155.554,76.239 162.778 C 79.624 175.886,89.364 188.172,101.261 194.339 C 110.736 199.250,114.909 199.975,133.789 199.988 L 150.000 200.000 150.000 278.512 L 150.000 357.024 160.736 378.512 L 171.471 400.000 210.736 400.000 L 250.000 400.000 250.000 370.687 L 250.000 341.375 240.625 327.344 C 235.469 319.627,231.250 312.948,231.250 312.502 C 231.250 312.056,236.192 304.290,242.233 295.245 C 248.273 286.199,253.429 278.243,253.689 277.564 C 253.973 276.823,249.241 266.474,241.818 251.604 L 229.473 226.877 238.370 213.459 L 247.266 200.041 264.844 200.009 C 285.213 199.972,289.139 199.315,298.739 194.339 C 310.636 188.172,320.376 175.886,323.761 162.778 C 325.626 155.554,325.626 44.446,323.761 37.222 C 319.362 20.186,304.814 5.638,287.778 1.239 C 280.159 -0.728,118.214 -0.522,111.328 1.463 M250.000 100.000 L 250.000 125.000 200.000 125.000 L 150.000 125.000 150.000 100.000 L 150.000 75.000 200.000 75.000 L 250.000 75.000 250.000 100.000 " stroke="none" fill="#000000" fill-rule="evenodd"></path></g></svg>