<svg id="svg" xmlns="http://www.w3.org/2000/svg" xmlns:xlink="http://www.w3.org/1999/xlink" width="400" height="400" viewBox="0, 0, 400,400"><g id="svgg"><path id="path0" d="M6.598 74.184 C 5.715 74.543,3.869 76.116,2.496 77.680 L 0.000 80.523 -0.000 152.646 L -0.000 224.769 1.758 227.344 C 4.650 231.582,7.900 232.813,16.199 232.813 L 23.438 232.813 23.437 242.912 C 23.437 256.003,23.662 256.250,35.566 256.250 C 47.146 256.250,47.192 256.199,47.523 243.040 L 47.780 232.813 104.359 232.813 C 135.477 232.813,160.938 232.946,160.938 233.110 C 160.937 233.274,158.654 237.405,155.864 242.290 C 148.334 255.470,148.576 256.621,160.251 263.164 C 169.005 268.070,169.693 267.572,180.552 248.472 L 189.453 232.817 270.668 233.010 L 351.884 233.203 360.544 248.328 C 371.881 268.130,372.081 268.252,382.862 262.033 C 392.500 256.474,392.690 255.105,385.547 242.665 C 379.387 231.937,379.369 232.813,385.754 232.813 C 391.959 232.813,395.597 231.220,398.242 227.344 L 400.000 224.769 400.000 152.589 L 400.000 80.408 396.931 77.118 L 393.862 73.828 201.033 73.680 C 94.976 73.598,7.481 73.825,6.598 74.184 M215.234 244.544 C 183.059 250.959,170.969 291.103,194.150 314.552 C 216.518 337.180,255.724 326.564,263.647 295.734 C 271.249 266.153,245.169 238.576,215.234 244.544 M307.642 244.963 C 285.261 250.389,271.265 274.456,277.680 296.484 C 288.688 334.287,340.941 337.307,356.122 301.018 C 369.037 270.145,340.392 237.024,307.642 244.963 M228.376 268.806 C 234.772 270.583,240.573 278.256,240.608 284.986 C 240.686 300.292,222.183 308.042,211.451 297.198 C 199.166 284.786,211.487 264.117,228.376 268.806 M324.701 269.845 C 333.420 273.905,337.300 284.484,333.038 292.578 C 324.436 308.918,300.872 303.531,300.798 285.208 C 300.748 272.616,313.310 264.542,324.701 269.845 " stroke="none" fill="#000000" fill-rule="evenodd"></path></g></svg>