<svg id="svg" xmlns="http://www.w3.org/2000/svg" xmlns:xlink="http://www.w3.org/1999/xlink" width="400" height="400" viewBox="0, 0, 400,400"><g id="svgg"><path id="path0" d="M194.531 11.448 C 176.387 13.654,162.919 21.269,152.600 35.156 C 149.362 39.515,10.846 293.519,5.358 305.162 C -10.395 338.586,9.059 378.796,45.069 387.241 C 54.550 389.464,345.450 389.464,354.931 387.241 C 390.932 378.798,410.379 338.610,394.648 305.162 C 389.191 293.558,250.643 39.523,247.394 35.164 C 235.042 18.591,213.877 9.095,194.531 11.448 M208.115 109.409 C 213.490 111.420,218.292 116.029,220.976 121.754 L 223.047 126.172 223.047 188.672 C 223.047 259.035,223.310 255.750,217.118 262.785 C 207.943 273.207,192.057 273.207,182.882 262.785 C 176.690 255.750,176.953 259.035,176.953 188.672 L 176.953 126.172 179.024 121.754 C 184.405 110.276,196.601 105.101,208.115 109.409 M208.115 296.909 C 222.743 302.382,227.452 321.356,217.101 333.116 C 203.027 349.105,177.317 339.092,177.351 317.634 C 177.376 302.139,193.343 291.382,208.115 296.909 " stroke="none" fill="#000000" fill-rule="evenodd"></path></g></svg>